<?xml version="1.0" encoding="UTF-8"?><svg id="Layer_2" xmlns="http://www.w3.org/2000/svg" viewBox="0 0 223.7064 200.5211"><defs><style>.cls-1{fill:#5f0;}</style></defs><path class="cls-1" d="M130.2596,62.5559c-12.8799,3.72-25.76,8.1899-38.6299,11.8699,12.8699-3.6899,25.75-8.1599,38.6299-11.8699Z"/><path class="cls-1" d="M212.0367,85.3722q-22.789,23.5046-28.0983,45.8431c-11.1334,41.9601-93.4613,60.5163-132.2469,64.3347-37.1875,2.844-60.6338-48.01-40.8995-76.6006,5.7639-10.8242,14.8076-26.4937,22.7676-38.5836l58.0701-5.9401c-12.6001,24.9202-25.2,49.0801-37.8,71.04,92.4806-13.7921,73.4674-17.9376,115.0701-90.22-26.2604,1.3582-52.0063,11.9932-77.27,19.1799-9.8801-13.8499-19.75-28.1499-29.6201-43.6299,50.7032-3.2029,122.047-60.5551,151.4002,8.4186,8.79,20.4613,8.0836,36.404-1.3731,46.1577Z"/></svg>