<?xml version="1.0" standalone="no"?>
<!DOCTYPE svg PUBLIC "-//W3C//DTD SVG 20010904//EN"
 "http://www.w3.org/TR/2001/REC-SVG-20010904/DTD/svg10.dtd">
<svg version="1.0" xmlns="http://www.w3.org/2000/svg"
 width="1100pt" height="1100pt" viewBox="0 0 1100 1100"
 preserveAspectRatio="xMidYMid meet">

<g transform="translate(0.000000,1091.000000) scale(0.100000,-0.100000)"
fill="#39FF14" stroke="none">
<path d="M5520 10308 c0 -109 -14 -323 -35 -533 -97 -965 -377 -1812 -823
-2489 -192 -291 -356 -484 -551 -647 -665 -557 -1821 -939 -3246 -1074 -88 -8
-186 -15 -217 -15 -31 0 -60 -4 -63 -10 -4 -6 18 -10 58 -10 35 0 135 -7 223
-15 1182 -112 2185 -395 2868 -808 384 -232 628 -466 892 -857 466 -687 760
-1559 859 -2545 21 -210 35 -424 35 -532 0 -55 4 -93 10 -93 6 0 10 38 10 93
0 108 14 322 35 532 110 1095 450 2021 1013 2758 420 550 1138 949 2177 1211
497 125 1132 227 1578 252 118 7 163 24 64 24 -30 0 -125 7 -213 15 -1176 112
-2201 400 -2867 807 -432 263 -665 498 -966 972 -376 592 -626 1299 -745 2102
-41 277 -76 675 -76 857 0 58 -4 97 -10 97 -6 0 -10 -38 -10 -92z"/>
</g>
</svg>
