<svg version="1.2" xmlns="http://www.w3.org/2000/svg" viewBox="0 0 927 710" width="927" height="710"><style>.a{fill:#f8beac}.b{fill:#c5c5c5}.c{fill:#111827}.d{fill:#fff}.e{fill:#39ff14}.f{fill:#323233}.g{fill:#737373}.h{fill:#2f2e41}.i{fill:#e4e4e4}.j{fill:#494859}</style><path class="a" d="m103.7 447.9l-9.2-9.3 11.2-17.1 19.2-31.9c-1.3-2.8-0.7-6.1 1.5-8.3 2.2-2.2 5.5-2.9 8.3-1.6 2.8 1.2 4.6 4.1 4.5 7.2-0.2 3-2.2 5.7-5.2 6.7l-15.8 34.1z"/><path class="b" d="m93.6 469.2q-0.8 1.2-2 2.2-1.1 1-2.4 1.6-1.4 0.6-2.9 0.8-1.4 0.2-2.9 0-1.4-0.2-2.7-0.7-1.3-0.6-2.4-1.5-1-0.9-1.8-2.1-0.8-1.1-1.2-2.5-0.3-0.9-0.4-1.9-0.1-1 0.1-2 0.1-1 0.4-2 0.4-0.9 0.9-1.8c6.1-10.3 17.4-23.9 17.5-24l0.2-0.2 19 4.1z"/><path class="c" d="m256.2 97.8l-2.2 0.7-18.9-61.3c-1.4-4.7-3.7-9-6.8-12.7-3.1-3.8-7-6.9-11.3-9.2-4.3-2.3-9-3.7-13.8-4.1-4.9-0.5-9.8 0-14.4 1.5l-129.8 39.9c-4.7 1.4-9 3.8-12.8 6.9-3.7 3.1-6.8 6.9-9.1 11.2-2.3 4.3-3.7 9-4.2 13.9-0.4 4.8 0.1 9.7 1.5 14.4l103.5 336.1c1.4 4.6 3.8 9 6.9 12.7 3.1 3.8 6.9 6.9 11.2 9.2 4.3 2.2 9 3.6 13.9 4.1 4.8 0.5 9.7 0 14.4-1.5l129.8-39.9c4.6-1.5 9-3.8 12.7-6.9 3.8-3.1 6.9-6.9 9.1-11.2 2.3-4.3 3.7-9.1 4.2-13.9 0.4-4.9-0.1-9.8-1.5-14.4l-71.2-231.2 2.3-0.7z"/><path fill-rule="evenodd" class="d" d="m203.8 20.3c3.6 0.4 7.1 1.4 10.3 3.1 3.3 1.7 6.1 4 8.4 6.9 2.3 2.8 4.1 6 5.2 9.5l103.3 335.6c1.1 3.4 1.4 7.1 1.1 10.7-0.4 3.6-1.4 7.2-3.1 10.4-1.7 3.2-4 6-6.8 8.4-2.8 2.3-6.1 4-9.5 5.1l-130.5 40.1c-3.4 1.1-7.1 1.5-10.7 1.2-3.6-0.4-7.2-1.4-10.4-3.1-3.2-1.7-6-4.1-8.4-6.9-2.3-2.8-4-6-5.1-9.5l-103.3-335.6c-1.1-3.5-1.5-7.1-1.1-10.7 0.3-3.7 1.4-7.2 3.1-10.4 1.7-3.2 4-6.1 6.8-8.4 2.8-2.3 6-4 9.5-5.1l15.8-4.9q0 0 0 0l97.7-30q0 0 0 0l16.9-5.3c3.5-1 7.2-1.4 10.8-1.1z"/><path class="c" d="m682.8 689.7l-293-137.2c-3.5-1.7-6.6-3.9-9.1-6.7-2.6-2.8-4.6-6.1-5.8-9.7-1.3-3.6-1.9-7.4-1.7-11.1 0.1-3.8 1-7.6 2.6-11l199.1-424.9c1.6-3.5 3.9-6.5 6.7-9.1 2.8-2.6 6-4.5 9.6-5.8 3.6-1.3 7.4-1.9 11.2-1.7 3.8 0.1 7.5 1 10.9 2.7l293 137.2c3.5 1.6 6.6 3.9 9.1 6.7 2.6 2.8 4.6 6.1 5.8 9.6 1.3 3.6 1.9 7.4 1.7 11.2-0.1 3.8-1 7.5-2.6 10.9l-199.1 425c-1.6 3.4-3.9 6.5-6.7 9.1-2.8 2.5-6 4.5-9.6 5.8-3.6 1.3-7.4 1.9-11.2 1.7-3.8-0.2-7.5-1.1-10.9-2.7z"/><path class="d" d="m691.1 673.2l-294-137.7c-1.1-0.5-2-1.2-2.8-2.1-0.8-0.8-1.4-1.8-1.8-2.9-0.4-1.1-0.6-2.3-0.5-3.5 0-1.1 0.3-2.3 0.8-3.4l200.3-427.7c0.5-1 1.2-2 2.1-2.8 0.9-0.8 1.9-1.4 3-1.8 1.1-0.4 2.2-0.6 3.4-0.5 1.2 0 2.3 0.3 3.4 0.8l294 137.7c1.1 0.5 2 1.2 2.8 2.1 0.8 0.9 1.4 1.9 1.8 3 0.4 1.1 0.6 2.3 0.5 3.4 0 1.2-0.3 2.3-0.8 3.4l-200.3 427.7c-0.5 1.1-1.2 2-2.1 2.8-0.9 0.8-1.9 1.4-3 1.8-1.1 0.4-2.2 0.6-3.4 0.6-1.2-0.1-2.3-0.4-3.4-0.9z"/><path fill-rule="evenodd" class="e" d="m234.3 278.6c-26 26-68 26-94 0-26-26-26-68 0-94 26-25.9 68-25.9 94 0 26 26 26 68 0 94z"/><path fill-rule="evenodd" class="d" d="m194.2 263.3l-32.8-22.3 2.8-4.2 27.3 18.5 19.6-61.6 4.9 1.6-21.8 68z"/><path fill-rule="evenodd" class="e" d="m702.6 441.4c-35.9 29.8-88.8 24.8-118.6-11-29.7-35.8-24.7-88.8 11.1-118.5 35.8-29.7 88.8-24.8 118.5 11 29.7 35.9 24.8 88.8-11 118.5z"/><path fill-rule="evenodd" class="d" d="m625.3 410.4l-7.5-49.8 6.4-0.9 6.2 41.2 74.2-34.6 2.7 5.8-82 38.3z"/><path fill-rule="evenodd" class="a" d="m109 697.2h11.3l5.4-43.8h-16.7v43.8z"/><path class="f" d="m106.1 693.5h22.4c1.8 0 3.7 0.4 5.4 1.1 1.7 0.7 3.3 1.8 4.6 3.1 1.4 1.3 2.4 2.9 3.1 4.6 0.7 1.8 1.1 3.6 1.1 5.5v0.5h-36.6z"/><path fill-rule="evenodd" class="a" d="m20.5 692.3l11.2 1.7 11.9-42.5-14.7-2.5-8.4 43.3z"/><path class="f" d="m18.2 690.2l22.1 3.4c1.9 0.2 3.7 0.9 5.3 1.9 1.6 0.9 3 2.2 4.1 3.7 1.1 1.5 1.9 3.2 2.3 5 0.5 1.9 0.6 3.7 0.3 5.6l-0.1 0.5-36.2-5.5z"/><path class="g" d="m86.3 490.6l26.4-5.7 14.9 42.4 0.4 163.5-21.5-0.1-9.1-132.4-57.4 122.3-23.2-2.8 50.5-131.1c0 0-2.8-23.2 6-34.7l-1.8-12.1z"/><path class="b" d="m61.5 459.5q-0.4-1.4-0.5-2.8 0-1.4 0.3-2.8 0.4-1.4 1.1-2.6 0.8-1.2 1.8-2.2l5.6-5 15.7-2.7 9.9-1.8 23.3 58.3-45.9 5.2c-3.4-0.7-4.7-2.6-2.8-6.2z"/><path class="a" d="m117.1 449.8l-1.3-12.9 19.5-6.4 34.9-12.9c0.8-3 3.3-5.2 6.4-5.6 3-0.4 6 1.2 7.5 4 1.4 2.7 1 6-1.1 8.4-2 2.3-5.3 3.1-8.2 2l-33.6 16.7z"/><path class="b" d="m96 460.1q-1.4 0.5-2.9 0.5-1.5 0.1-2.9-0.3-1.5-0.4-2.8-1.1-1.2-0.8-2.2-1.9-1-1-1.7-2.2-0.6-1.3-0.9-2.6-0.3-1.4-0.2-2.8 0.2-1.4 0.7-2.7 0.4-0.9 0.9-1.8 0.6-0.8 1.3-1.5 0.7-0.7 1.6-1.2 0.8-0.5 1.8-0.9c11.2-4.2 28.5-7.8 28.7-7.8h0.2l12.3 15.1z"/><path fill-rule="evenodd" class="a" d="m78.6 435.8c-9.5 0-17.2-7.7-17.2-17.3 0-9.5 7.7-17.2 17.2-17.2 9.6 0 17.3 7.7 17.3 17.2 0 9.6-7.7 17.3-17.3 17.3z"/><path class="h" d="m60.6 437.2q-1 0-2-0.1-1 0-2-0.1-1 0-2-0.1-1-0.1-2-0.2l-0.3-0.1-2.8-15.1c-0.6-3.2-0.6-6.4 0-9.6 0.7-3.1 1.9-6.2 3.7-8.9 1.7-2.7 4-5 6.6-6.9 2.6-1.9 5.6-3.2 8.7-4q0.4-0.1 0.7 0 0.3 0 0.6 0.1 0.3 0.1 0.6 0.2 0.3 0.2 0.5 0.5l0.7-0.3c2.5-0.9 5.2-1.2 7.9-1.1 2.7 0.2 5.3 0.8 7.7 2 2.4 1.2 4.6 2.8 6.4 4.8 1.8 2 3.2 4.4 4.1 6.9l0.1 0.5-4.4 1.5c-1.4 0.5-2.6 1.3-3.7 2.3-1 1.1-1.8 2.3-2.3 3.7-0.5 1.4-0.7 2.8-0.6 4.3 0.2 1.4 0.7 2.8 1.4 4.1l4.5 7.5-0.4 0.3q-3.7 1.9-7.6 3.3-3.8 1.5-7.8 2.4-4 1-8.1 1.5-4 0.5-8.2 0.6z"/><path class="a" d="m767.1 535.4c0.8-0.7 1.5-1.6 2-2.6 0.4-1 0.7-2.1 0.7-3.2 0-1.1-0.3-2.2-0.7-3.2-0.5-1-1.2-1.9-2-2.6l-5.6-98.6-16 3.6 10.5 96.3c-1 1.5-1.6 3.4-1.4 5.2 0.2 1.9 1 3.6 2.4 4.8 1.4 1.3 3.1 2 5 2.1 1.8 0 3.7-0.6 5.1-1.8z"/><path class="a" d="m832 548.2c-0.9-0.7-1.6-1.5-2.1-2.5-0.5-1-0.8-2.1-0.8-3.2-0.1-1.1 0.2-2.2 0.6-3.2 0.4-1 1.1-1.9 1.9-2.6l2-98.8 16.1 3-7.1 96.7c1.2 1.4 1.8 3.2 1.6 5.1-0.1 1.9-0.8 3.6-2.2 4.9-1.3 1.3-3 2.1-4.9 2.2-1.8 0.1-3.7-0.4-5.1-1.6z"/><path fill-rule="evenodd" class="a" d="m840.5 695h12.6l3.5-29.3h-16.1v29.3z"/><path class="h" d="m837.3 690.9h24.7c2.1 0 4.1 0.4 6 1.2 2 0.8 3.7 1.9 5.2 3.4 1.4 1.5 2.6 3.2 3.4 5.1 0.8 1.9 1.2 4 1.2 6v0.5h-40.5z"/><path fill-rule="evenodd" class="a" d="m762.2 695h12.6l3.6-48.4h-16.2v48.4z"/><path class="h" d="m759 690.9h24.7c2.1 0 4.2 0.4 6.1 1.2 1.9 0.8 3.6 1.9 5.1 3.4 1.4 1.5 2.6 3.2 3.4 5.1 0.8 1.9 1.2 4 1.2 6v0.5h-40.5z"/><path fill-rule="evenodd" class="a" d="m812.8 382.6c-11.4 0-20.6-9.1-20.6-20.5 0-11.3 9.2-20.5 20.6-20.5 11.3 0 20.5 9.2 20.5 20.5 0 11.4-9.2 20.5-20.5 20.5z"/><path class="i" d="m838.9 409.5c0 0 9.1 0.7 9.8 5.3 0.8 4.5 0 18.2 0 18.2 0 0 6.1 18.3 0 22.8-6 4.6-22 5.4-22 5.4z"/><path class="j" d="m761.3 512.8l-8.3 13.7c0 0 3 60.1 3.8 61.6q0.2 0.3 0.4 0.7 0.1 0.4 0.2 0.7 0.1 0.4 0.1 0.8 0.1 0.4 0 0.8v8.4l2.3 73c0 0-6.1 3 1.5 5.3 7.6 2.3 17.5 3 19-4.6 1.5-7.6 1.6-70.9 1.5-72.9l0.8-3.1 12.2-44.8 28.1 62.3 16.7 69.9c0 0 25.3 2.9 20.8-6.9-4.6-9.9-15.5-83.5-15.5-83.5 0 0-2.2-7.6-2.2-9.2 0-1.5-0.8-2.2-0.8-3.8 0-1.5-0.8-6-0.8-6l-5.3-47.9z"/><path class="i" d="m768.9 396.5c0 0-9.1-0.7-11.4 6.9-2.3 7.6-21.3 36.5-17.5 39.5 3.8 3.1 32.7 13.7 33.5 12.9 0.7-0.7-4.6-59.3-4.6-59.3z"/><path class="h" d="m836.7 349c-0.9-3.2-2.1-6.4-4.6-8.6q-0.9-0.8-2-1.5-1-0.6-2.2-1.1-1.2-0.5-2.4-0.7-1.2-0.2-2.5-0.3-2.8-1.6-6-2.6-3.2-0.9-6.5-1.1-3.3-0.2-6.6 0.4-3.2 0.6-6.3 1.9-0.1-0.3-0.3-0.6-0.2-0.3-0.5-0.6-0.3-0.3-0.6-0.5-0.3-0.2-0.6-0.4-0.3 3.2-0.7 6.4-1.4-1.1-2.8-2.2-0.1 1.9-0.2 3.8-1.3-1.1-2.6-2.3c-0.2 4.5 3.5 8.3 7.7 9.8 4.2 1.5 8.7 1.2 13.1 1 2.2-0.1 4.7 0 6.2 1.6 1.5 1.7 1.2 4.3 1.3 6.5 0 3.3 3.3 1.7 5 4.5q0.3 0.3 0.5 0.7 0.2 0.3 0.4 0.7 0.1 0.4 0.2 0.9 0.1 0.4 0.2 0.8-0.1 0.4-0.2 0.8-0.1 0.4-0.2 0.7-0.2 0.4-0.3 0.8-0.2 0.3-0.4 0.7c-1.3 2.5-3.7 10.3-2.5 12.9q3.2-1.8 6.4-3.6c0 0 14.1-13.3 10-28.8z"/><path class="i" d="m832.8 453.6c0 0 15.2-38.8 14.4-41.9-0.7-3-19.7-15.5-19.7-15.5q-1.1-0.1-2.1-0.2 0-0.1 0.1-0.2 0-0.1 0-0.2 0-0.1 0.1-0.3 0-0.1 0-0.2l0.3-2.9q0.1-0.7-0.1-1.4-0.2-0.7-0.6-1.2-0.5-0.6-1.1-0.9-0.6-0.3-1.3-0.4l-24.1-2.6q-0.7-0.1-1.3 0.1-0.7 0.2-1.2 0.6-0.6 0.4-0.9 1-0.4 0.7-0.4 1.4l-0.3 2.5c-1.3-0.3-1.4-0.4-1.4-0.4 0 0-21.2 3.4-26.6 4.9-5.3 1.5-0.7 59.3-0.7 59.3 0 0-3.8 53.2-6.1 54.7-2.3 1.5 0 0.8-2.3 6.8-0.3 0.8 3.9-3.6 5.7-2.6 11.9 6.7 60 22.3 71.9 21.6 3.8-39.6-3.8-52.4-3.8-52.4z"/></svg>